<svg width="98" height="98" viewBox="0 0 98 98" fill="none" xmlns="http://www.w3.org/2000/svg">
<g filter="url(#filter0_d_15_127)">
<path d="M39.1755 16.0883C39.543 13.8752 41.4622 12.25 43.708 12.25H54.2961C56.5419 12.25 58.4611 13.8752 58.8286 16.0883L59.6984 21.3191C59.9556 22.8463 60.9764 24.1203 62.3321 24.8716C62.6343 25.0349 62.9324 25.2105 63.2304 25.3902C64.5534 26.1905 66.1704 26.4396 67.62 25.8965L72.5894 24.0345C73.6078 23.6515 74.7291 23.6424 75.7535 24.0088C76.778 24.3752 77.6391 25.0934 78.1836 26.0353L83.4756 35.2106C84.0189 36.1526 84.2104 37.2569 84.016 38.3268C83.8216 39.3968 83.2539 40.3631 82.4139 41.0538L78.3184 44.4307C77.1219 45.4107 76.5299 46.9338 76.5584 48.4814C76.565 48.8285 76.565 49.1756 76.5584 49.5227C76.5299 51.0662 77.1219 52.5852 78.3143 53.5652L82.418 56.9462C84.1494 58.3753 84.5985 60.8417 83.4797 62.7853L78.1795 71.9606C77.6358 72.9024 76.7756 73.6207 75.752 73.9878C74.7284 74.3549 73.6078 74.347 72.5894 73.9655L67.62 72.1035C66.1704 71.5604 64.5575 71.8095 63.2264 72.6098C62.9303 72.7898 62.6308 72.9641 62.328 73.1325C60.9764 73.8798 59.9556 75.1537 59.6984 76.6809L58.8286 81.9076C58.4611 84.1248 56.5419 85.75 54.2961 85.75H43.7039C41.4581 85.75 39.5389 84.1248 39.1714 81.9117L38.3017 76.6809C38.0485 75.1537 37.0277 73.8798 35.672 73.1284C35.3692 72.9614 35.0697 72.7885 34.7737 72.6098C33.4466 71.8095 31.8337 71.5604 30.38 72.1035L25.4106 73.9655C24.3927 74.3474 23.2724 74.3559 22.2489 73.9896C21.2253 73.6232 20.3649 72.9057 19.8205 71.9647L14.5244 62.7894C13.9811 61.8474 13.7896 60.7431 13.984 59.6732C14.1784 58.6032 14.7461 57.6369 15.5861 56.9462L19.6858 53.5693C20.8781 52.5893 21.4702 51.0662 21.4416 49.5186C21.4352 49.1715 21.4352 48.8244 21.4416 48.4773C21.4702 46.9338 20.8781 45.4148 19.6858 44.4348L15.5861 41.0538C14.7471 40.3633 14.1801 39.3978 13.9857 38.3287C13.7914 37.2597 13.9822 36.1563 14.5244 35.2147L19.8205 26.0394C20.3644 25.0967 21.2252 24.3777 22.2498 24.0106C23.2743 23.6434 24.3959 23.6519 25.4147 24.0345L30.38 25.8965C31.8337 26.4396 33.4466 26.1905 34.7737 25.3902C35.0677 25.2105 35.3699 25.0349 35.672 24.8675C37.0277 24.1203 38.0485 22.8463 38.3017 21.3191L39.1755 16.0883Z" stroke="#CDD6F4" stroke-width="5" stroke-linecap="round" stroke-linejoin="round"/>
<path d="M61.25 49C61.25 52.2489 59.9594 55.3647 57.6621 57.6621C55.3647 59.9594 52.2489 61.25 49 61.25C45.7511 61.25 42.6353 59.9594 40.3379 57.6621C38.0406 55.3647 36.75 52.2489 36.75 49C36.75 45.7511 38.0406 42.6353 40.3379 40.3379C42.6353 38.0406 45.7511 36.75 49 36.75C52.2489 36.75 55.3647 38.0406 57.6621 40.3379C59.9594 42.6353 61.25 45.7511 61.25 49Z" stroke="#CDD6F4" stroke-width="5" stroke-linecap="round" stroke-linejoin="round"/>
</g>
<defs>
<filter id="filter0_d_15_127" x="-4" y="0" width="106" height="106" filterUnits="userSpaceOnUse" color-interpolation-filters="sRGB">
<feFlood flood-opacity="0" result="BackgroundImageFix"/>
<feColorMatrix in="SourceAlpha" type="matrix" values="0 0 0 0 0 0 0 0 0 0 0 0 0 0 0 0 0 0 127 0" result="hardAlpha"/>
<feOffset dy="4"/>
<feGaussianBlur stdDeviation="2"/>
<feComposite in2="hardAlpha" operator="out"/>
<feColorMatrix type="matrix" values="0 0 0 0 0 0 0 0 0 0 0 0 0 0 0 0 0 0 0.25 0"/>
<feBlend mode="normal" in2="BackgroundImageFix" result="effect1_dropShadow_15_127"/>
<feBlend mode="normal" in="SourceGraphic" in2="effect1_dropShadow_15_127" result="shape"/>
</filter>
</defs>
</svg>
